<svg width="172" height="94" viewBox="0 0 172 94" fill="none" xmlns="http://www.w3.org/2000/svg">
<path d="M19.32 83.68V9.66C19.32 4.32493 14.9951 0 9.66 0C4.32493 0 0 4.32492 0 9.66V83.68C0 89.0151 4.32493 93.34 9.66 93.34C14.9951 93.34 19.32 89.0151 19.32 83.68Z" fill="#313139"/>
<path d="M12.49 79.6799H6.83C3.05789 79.6799 0 82.7378 0 86.5099C0 90.282 3.05789 93.3399 6.83 93.3399H12.49C16.2621 93.3399 19.32 90.282 19.32 86.5099C19.32 82.7378 16.2621 79.6799 12.49 79.6799Z" fill="#313139"/>
<path d="M141.32 83.68V9.66C141.32 4.32493 136.995 0 131.66 0C126.325 0 122 4.32492 122 9.66V83.68C122 89.0151 126.325 93.34 131.66 93.34C136.995 93.34 141.32 89.0151 141.32 83.68Z" fill="#313139"/>
<path d="M171.75 83.68V9.66C171.75 4.32493 167.425 0 162.09 0C156.755 0 152.43 4.32492 152.43 9.66V83.68C152.43 89.0151 156.755 93.34 162.09 93.34C167.425 93.34 171.75 89.0151 171.75 83.68Z" fill="#313139"/>
<path d="M49.6999 83.68V9.66C49.6999 4.32493 45.375 0 40.0399 0C34.7048 0 30.3799 4.32492 30.3799 9.66V83.68C30.3799 89.0151 34.7048 93.34 40.0399 93.34C45.375 93.34 49.6999 89.0151 49.6999 83.68Z" fill="#313139"/>
<path d="M80.08 83.68V9.66C80.08 4.32493 75.7551 0 70.42 0C65.0849 0 60.76 4.32492 60.76 9.66V83.68C60.76 89.0151 65.0849 93.34 70.42 93.34C75.7551 93.34 80.08 89.0151 80.08 83.68Z" fill="#313139"/>
<path d="M110.46 83.68V9.66C110.46 4.32493 106.135 0 100.8 0C95.4651 0 91.1401 4.32492 91.1401 9.66V83.68C91.1401 89.0151 95.4651 93.34 100.8 93.34C106.135 93.34 110.46 89.0151 110.46 83.68Z" fill="#313139"/>
<path d="M171.75 83.6701V28.7801C171.75 23.445 167.425 19.1201 162.09 19.1201C156.755 19.1201 152.43 23.4451 152.43 28.7801V83.6701C152.43 89.0052 156.755 93.3301 162.09 93.3301C167.425 93.3301 171.75 89.0052 171.75 83.6701Z" fill="url(#paint0_linear_408_1707)"/>
<path d="M141 83.5V38.5C141 33.2533 136.747 29 131.5 29C126.253 29 122 33.2533 122 38.5V83.5C122 88.7467 126.253 93 131.5 93C136.747 93 141 88.7467 141 83.5Z" fill="url(#paint1_linear_408_1707)"/>
<path d="M110 83.5V54.5C110 49.2533 105.747 45 100.5 45C95.2533 45 91 49.2533 91 54.5V83.5C91 88.7467 95.2533 93 100.5 93C105.747 93 110 88.7467 110 83.5Z" fill="url(#paint2_linear_408_1707)"/>
<path d="M80 83.5V66.5C80 61.2533 75.7467 57 70.5 57C65.2533 57 61 61.2533 61 66.5V83.5C61 88.7467 65.2533 93 70.5 93C75.7467 93 80 88.7467 80 83.5Z" fill="url(#paint3_linear_408_1707)"/>
<path d="M41 75H40C35.0294 75 31 79.0294 31 84C31 88.9706 35.0294 93 40 93H41C45.9706 93 50 88.9706 50 84C50 79.0294 45.9706 75 41 75Z" fill="url(#paint4_linear_408_1707)"/>
<defs>
<linearGradient id="paint0_linear_408_1707" x1="163.5" y1="3.00009" x2="193.116" y2="19.2609" gradientUnits="userSpaceOnUse">
<stop stop-color="#FF9898"/>
<stop offset="1" stop-color="#8054FF"/>
</linearGradient>
<linearGradient id="paint1_linear_408_1707" x1="132.887" y1="15.0978" x2="160.117" y2="32.1472" gradientUnits="userSpaceOnUse">
<stop stop-color="#FF9898"/>
<stop offset="1" stop-color="#8054FF"/>
</linearGradient>
<linearGradient id="paint2_linear_408_1707" x1="101.887" y1="34.5734" x2="124.225" y2="53.2213" gradientUnits="userSpaceOnUse">
<stop stop-color="#FF9898"/>
<stop offset="1" stop-color="#8054FF"/>
</linearGradient>
<linearGradient id="paint3_linear_408_1707" x1="71.8867" y1="49.18" x2="88.8168" y2="68.0245" gradientUnits="userSpaceOnUse">
<stop stop-color="#FF9898"/>
<stop offset="1" stop-color="#8054FF"/>
</linearGradient>
<linearGradient id="paint4_linear_408_1707" x1="41.8867" y1="71.09" x2="48.2512" y2="85.2583" gradientUnits="userSpaceOnUse">
<stop stop-color="#FF9898"/>
<stop offset="1" stop-color="#8054FF"/>
</linearGradient>
</defs>
</svg>
